<svg width="35" height="40" viewBox="0 0 35 40" fill="none" xmlns="http://www.w3.org/2000/svg">
<g clip-path="url(#clip0_1238_9923)">
<path d="M0.931796 10.3643C0.0134621 11.7026 -0.0161615 12.5172 0.872549 13.4772C1.87975 14.6118 10.3521 20.634 10.915 20.634C11.1816 20.634 11.4778 20.5177 11.5667 20.3722C11.7148 20.1685 7.24164 16.7647 2.94621 13.7972C1.34653 12.6917 1.13916 12.0808 1.96862 10.9753C2.59072 10.1607 2.59072 9.28788 1.99825 9.28788C1.82051 9.28788 1.34653 9.78246 0.931796 10.3643Z" fill="white"/>
<path d="M3.27578 18.3921C3.27578 19.6361 3.07494 20.2581 2.12813 21.9167C1.49691 23.0126 0.980469 24.0196 0.980469 24.1381C0.980469 24.3751 5.59979 26.6853 6.05885 26.6853C6.54661 26.6853 7.17782 25.6783 7.55081 24.4047C7.72295 23.7235 8.21071 22.7757 8.5837 22.3018L9.30098 21.4132L7.20651 19.8731C6.08754 19.0141 4.71035 17.9775 4.2226 17.5628L3.27578 16.852V18.3921Z" fill="white"/>
<path d="M14.3983 19.1554C13.9752 19.581 13.7335 20.037 13.8846 20.189C14.1263 20.4018 25.1855 22.3172 25.1855 22.1347C25.1855 21.5875 24.4603 20.4322 23.8862 20.037C23.2214 19.6114 17.1782 18.3649 15.7278 18.3649C15.4256 18.3649 14.8213 18.7297 14.3983 19.1554Z" fill="white"/>
<path d="M11.131 22.6002C9.95978 23.1798 8.78856 24.7446 8.78856 25.7299C8.78856 26.1066 8.64216 26.4833 8.49576 26.5702C7.93943 26.918 7.03174 29.0044 7.03174 29.9028C7.03174 32.1051 9.19849 34.2495 11.4238 34.2495C12.7121 34.2495 14.5568 33.2353 15.0838 32.221L15.5523 31.3517H19.2124C22.726 31.3517 22.8724 31.3807 23.1067 31.9892C23.6337 33.3222 24.8342 34.1046 26.3861 34.1046C27.6159 34.1046 27.9379 33.9597 28.7578 33.1483C29.6069 32.3369 29.724 32.0182 29.724 30.7431C29.724 29.4391 29.6069 29.1783 28.67 28.3379C28.1136 27.8163 27.4695 26.9759 27.2645 26.5123C27.0595 26.0197 26.5325 25.2662 26.064 24.8315C25.3027 24.1071 24.6878 23.9622 19.2709 23.0639C12.3315 21.9337 12.4486 21.9337 11.131 22.6002ZM12.8878 27.1498C13.8248 27.6424 14.6446 28.9175 14.6446 29.9028C14.6446 30.888 13.8248 32.1631 12.8878 32.6557C11.8044 33.2063 11.0432 33.2063 9.95978 32.6557C9.02281 32.1631 8.20295 30.888 8.20295 29.9028C8.20295 28.9465 9.02281 27.6424 9.90122 27.1788C10.926 26.5992 11.8337 26.5992 12.8878 27.1498ZM27.9672 29.1783C29.4312 30.5982 28.4064 33.0904 26.3568 33.0904C25.1563 33.0904 24.0144 31.9602 24.0144 30.7721C24.0144 29.584 25.1563 28.4538 26.3568 28.4538C26.9131 28.4538 27.528 28.7146 27.9672 29.1783Z" fill="white"/>
<path d="M10.1486 29.2853C9.86985 29.9765 10.2601 30.5613 10.9292 30.455C11.4032 30.4018 11.5704 30.1892 11.5704 29.7107C11.5704 29.2322 11.4032 29.0195 10.9292 28.9663C10.5668 28.9132 10.2323 29.0461 10.1486 29.2853Z" fill="white"/>
<path d="M25.9943 30.6872C25.7798 31.0268 26.2732 31.4064 26.5736 31.1267C26.831 30.887 26.6594 30.4675 26.3376 30.4675C26.2303 30.4675 26.0802 30.5674 25.9943 30.6872Z" fill="white"/>
</g>
<path fill-rule="evenodd" clip-rule="evenodd" d="M28.0392 0.274696C27.6928 0.0132523 27.215 0.0132524 26.8685 0.274696L26.2558 0.737127C26.0342 0.904324 25.7518 0.968798 25.4796 0.914285L24.7269 0.763517C24.3013 0.678277 23.8708 0.88559 23.6721 1.27146L23.3207 1.95396C23.1936 2.20073 22.9671 2.38138 22.6982 2.45035L21.9547 2.6411C21.5342 2.74895 21.2363 3.12251 21.2247 3.55637L21.2042 4.32377C21.1968 4.60123 21.0711 4.86228 20.8588 5.04107L20.2716 5.53557C19.9396 5.81514 19.8333 6.28097 20.0111 6.6769L20.3256 7.3772C20.4393 7.6304 20.4393 7.92014 20.3256 8.17334L20.0111 8.87364C19.8333 9.26956 19.9396 9.73539 20.2716 10.015L20.8588 10.5095C21.0711 10.6883 21.1968 10.9493 21.2042 11.2268L21.2247 11.9942C21.2363 12.428 21.5342 12.8016 21.9547 12.9094L22.6982 13.1002C22.9671 13.1692 23.1936 13.3498 23.3207 13.5966L23.6721 14.2791C23.8708 14.6649 24.3013 14.8723 24.7269 14.787L25.4796 14.6362C25.7518 14.5817 26.0342 14.6462 26.2558 14.8134L26.8685 15.2758C27.215 15.5373 27.6928 15.5373 28.0392 15.2758L28.652 14.8134C28.8735 14.6462 29.156 14.5817 29.4282 14.6362L30.1809 14.787C30.6064 14.8723 31.0369 14.6649 31.2356 14.2791L31.5871 13.5966C31.7141 13.3498 31.9407 13.1692 32.2095 13.1002L32.9531 12.9094C33.3735 12.8016 33.6714 12.428 33.683 11.9942L33.7035 11.2268C33.7109 10.9493 33.8367 10.6883 34.049 10.5095L34.6361 10.015C34.9681 9.73539 35.0744 9.26956 34.8966 8.87364L34.5822 8.17334C34.4685 7.92014 34.4685 7.6304 34.5822 7.3772L34.8966 6.6769C35.0744 6.28097 34.9681 5.81514 34.6361 5.53557L34.049 5.04107C33.8367 4.86228 33.7109 4.60123 33.7035 4.32377L33.683 3.55637C33.6714 3.12251 33.3735 2.74895 32.9531 2.6411L32.2095 2.45035C31.9407 2.38138 31.7141 2.20073 31.5871 1.95396L31.2356 1.27146C31.0369 0.88559 30.6064 0.678277 30.1809 0.763517L29.4282 0.914285C29.156 0.968798 28.8735 0.904324 28.652 0.737127L28.0392 0.274696ZM28.3881 6.48985L27.4541 3.61519L26.52 6.48985H23.4974L25.9428 8.26649L25.0087 11.1412L27.4541 9.36452L29.8994 11.1412L28.9654 8.26649L31.4107 6.48985H28.3881Z" fill="white"/>
<defs>
<clipPath id="clip0_1238_9923">
<rect width="29.5" height="29.5" fill="white" transform="translate(0.223145 7.01904)"/>
</clipPath>
</defs>
</svg>
