<svg width="32" height="31" viewBox="0 0 32 31" fill="none" xmlns="http://www.w3.org/2000/svg">
<path d="M23.981 3.6016C23.6366 3.75095 23.0106 4.22887 22.5723 4.67691C21.5706 5.69249 21.4767 8.02234 22.3845 8.97818C22.9793 9.60545 22.9793 9.63532 21.7584 10.8301C20.5689 11.995 20.5376 12.0847 20.5376 14.1755V16.2963L21.7897 16.6547C23.3862 17.1327 27.3617 17.1327 28.9895 16.6547C30.1791 16.3262 30.2417 16.2366 30.3356 14.982C30.4921 12.8911 30.1477 11.8756 28.9269 10.7106C27.8 9.60545 27.8 9.60545 28.3948 8.97818C28.8017 8.53013 28.9895 7.90286 28.9895 6.88729C28.9895 5.66262 28.833 5.30418 28.0191 4.49769C26.9861 3.51199 25.1392 3.12368 23.981 3.6016Z" fill="white"/>
<path d="M2.48762 5.26526C2.39533 5.4778 2.36456 8.02827 2.39533 10.9431L2.48762 16.2566H8.48699H14.4864V10.6395V5.02235L8.54852 4.93127C3.90286 4.87054 2.57992 4.93127 2.48762 5.26526ZM10.7944 7.90682C10.7944 8.27117 10.3022 8.39263 8.67158 8.45335C6.54873 8.54444 5.74882 8.27117 6.17954 7.60319C6.3026 7.39065 7.19482 7.29956 8.57929 7.36029C10.3022 7.42102 10.7944 7.54247 10.7944 7.90682Z" fill="white"/>
<path d="M7.78096 17.3408C7.69007 17.5917 7.65978 19.8191 7.69007 22.2975L7.78096 26.8464H16.7184H25.6557L25.7466 23.5838L25.8375 20.3211L26.7161 21.1995C27.4432 21.9211 27.7159 22.0152 27.9886 21.7328C28.2915 21.4191 28.0188 20.9799 26.7767 19.6937L25.2013 18.0623L23.6259 19.6937C22.3837 20.9799 22.1111 21.4191 22.414 21.7328C22.6867 22.0152 22.9594 21.9211 23.6865 21.1995L24.5954 20.2897V23.0191V25.7484H16.7184H8.87163L8.78074 21.4505C8.72014 18.376 8.56866 17.1212 8.32629 17.027C8.11422 16.9643 7.87185 17.1212 7.78096 17.3408Z" fill="white"/>
</svg>
