<svg width="32" height="31" viewBox="0 0 32 31" fill="none" xmlns="http://www.w3.org/2000/svg">
<g clip-path="url(#clip0_1238_9534)">
<path d="M1.0822 2.15647C0.961289 2.24724 0.870605 7.63288 0.870605 14.1077V25.8472L4.86068 27.8442L8.85075 29.8411L12.4479 28.0257L16.0752 26.2406L19.9444 28.056L23.7833 29.8713L27.0781 28.1165C28.8616 27.1483 30.5241 26.2406 30.7055 26.0893C31.2193 25.696 31.2798 2.39852 30.7961 2.09595C30.6148 2.00518 28.9825 2.70108 27.1386 3.69954L23.7531 5.51493L19.9141 3.69954L16.0752 1.88416L12.4479 3.69954L8.82052 5.51493L5.67683 3.91134C2.23086 2.15647 1.38448 1.82365 1.0822 2.15647ZM4.98159 7.72365C5.28387 8.238 4.58863 8.81288 4.16544 8.38929C3.8027 8.02621 4.04453 7.39083 4.49794 7.39083C4.64908 7.39083 4.86068 7.54211 4.98159 7.72365ZM20.0653 7.99595C20.0653 8.54057 19.0678 8.78262 18.6446 8.35903C18.4632 8.17749 18.433 7.90519 18.5539 7.69339C18.8562 7.20929 20.0653 7.45134 20.0653 7.99595ZM23.0881 8.29852C23.0881 8.99442 21.6069 8.90365 21.486 8.20775C21.3953 7.7539 21.5464 7.66313 22.2417 7.7539C22.7555 7.81441 23.0881 8.02621 23.0881 8.29852ZM17.3448 8.87339C17.3448 9.53903 16.3775 10.0231 15.9543 9.59954C15.6822 9.32724 15.6822 9.11544 15.9845 8.75237C16.4379 8.17749 17.3448 8.26826 17.3448 8.87339ZM25.6574 9.05493C26.0202 9.47852 25.8388 10.1139 25.3551 10.1139C24.9319 10.1139 24.1158 9.17595 24.2972 8.87339C24.5692 8.4498 25.2342 8.54057 25.6574 9.05493ZM15.38 9.81134C15.7125 10.1442 15.9845 10.6888 15.9845 11.0216C15.9845 11.8083 14.9568 12.837 14.1708 12.837C13.8383 12.837 13.2942 12.5647 12.9617 12.2319C12.6292 11.899 12.3572 11.3544 12.3572 11.0216C12.3572 10.6888 12.6292 10.1442 12.9617 9.81134C13.2942 9.47852 13.8383 9.20621 14.1708 9.20621C14.5034 9.20621 15.0475 9.47852 15.38 9.81134ZM6.7348 10.1744C6.88594 10.4467 6.9464 10.7795 6.82549 10.9308C6.49298 11.2334 5.58615 10.598 5.46523 9.99288C5.3141 9.29698 6.25116 9.44826 6.7348 10.1744ZM27.7129 11.5662C27.8036 12.1411 27.6827 12.2621 27.2595 12.1713C26.9572 12.1108 26.6852 11.7477 26.6247 11.3847C26.534 10.8098 26.6549 10.6888 27.0781 10.7795C27.3804 10.8401 27.6525 11.2031 27.7129 11.5662ZM9.03212 11.778C9.60645 12.4739 9.00189 12.9883 8.15551 12.5647C7.4905 12.2016 7.36959 11.8688 7.73232 11.536C8.06483 11.1729 8.63915 11.2939 9.03212 11.778ZM12.206 12.2319C12.206 12.5042 11.8735 12.716 11.3899 12.7765C10.7853 12.837 10.5435 12.7462 10.5435 12.4134C10.5435 12.1713 10.7249 11.899 10.9365 11.8385C11.5713 11.5662 12.206 11.778 12.206 12.2319ZM28.5291 14.3498C28.5291 15.439 27.6525 15.3483 27.5315 14.259C27.4409 13.5631 27.5315 13.4119 27.985 13.5026C28.3477 13.5631 28.5291 13.8657 28.5291 14.3498ZM28.4988 16.7098C28.7709 17.1334 28.3175 18.2831 27.9245 18.2831C27.4409 18.2831 27.2293 17.7083 27.4106 16.9821C27.5315 16.4375 28.2268 16.2862 28.4988 16.7098ZM27.7734 19.7657C27.7734 20.3708 27.3804 21.0062 27.0177 21.0062C26.4736 21.0062 26.2317 20.5524 26.4433 19.9775C26.6247 19.4631 27.7734 19.2816 27.7734 19.7657ZM26.262 21.3088C26.5945 21.6416 26.8665 22.1862 26.8665 22.519C26.8665 23.3057 25.8388 24.3344 25.0529 24.3344C24.7204 24.3344 24.1763 24.0621 23.8437 23.7293C23.5112 23.3965 23.2392 22.8519 23.2392 22.519C23.2392 22.1862 23.5112 21.6416 23.8437 21.3088C24.1763 20.976 24.7204 20.7036 25.0529 20.7036C25.3854 20.7036 25.9295 20.976 26.262 21.3088ZM13.9895 21.4903C14.8359 21.8231 14.5336 22.519 13.5663 22.519C13.0222 22.519 12.6595 22.3677 12.6595 22.1257C12.6595 21.3693 13.1129 21.1575 13.9895 21.4903ZM11.3597 22.1257C11.541 22.6703 10.2412 23.2452 9.81804 22.8216C9.57622 22.5795 9.63667 22.3677 10.0901 22.0349C10.7249 21.5811 11.2085 21.6113 11.3597 22.1257ZM8.72984 22.519C9.06234 22.8519 9.33439 23.3965 9.33439 23.7293C9.33439 24.516 8.30665 25.5447 7.52073 25.5447C6.7348 25.5447 5.70706 24.516 5.70706 23.7293C5.70706 23.3965 5.97911 22.8519 6.31161 22.519C6.64412 22.1862 7.18822 21.9139 7.52073 21.9139C7.85323 21.9139 8.39733 22.1862 8.72984 22.519ZM16.9216 22.2467C17.7075 22.6401 17.1634 23.4267 16.2868 23.2149C15.6822 23.0636 15.5009 22.519 15.8938 22.1257C16.1357 21.8534 16.2263 21.8534 16.9216 22.2467ZM20.156 23.4872C20.2466 23.8806 20.0653 24.0319 19.4909 24.0319C18.6748 24.0319 18.2516 23.6083 18.5539 23.0939C18.8562 22.6098 20.035 22.9124 20.156 23.4872ZM23.1787 23.6385C23.0578 24.2436 22.1208 24.5462 21.6673 24.0924C21.2139 23.6385 21.6673 23.1242 22.5137 23.1242C23.0881 23.1242 23.2694 23.2754 23.1787 23.6385Z" fill="white"/>
</g>
<defs>
<clipPath id="clip0_1238_9534">
<rect width="30.2564" height="30.2564" fill="white" transform="translate(0.871582 0.371826)"/>
</clipPath>
</defs>
</svg>
