<svg width="32" height="34" viewBox="0 0 32 34" fill="none" xmlns="http://www.w3.org/2000/svg">
<g clip-path="url(#clip0_1238_7673)">
<path d="M5 13.5V15.9H14V13.5H5ZM5.375 16.3V22.5H13.625V16.3H5.375ZM8.09375 16.9H10.9062C11.1655 16.9 11.375 17.1234 11.375 17.4C11.375 17.6766 11.1655 17.9 10.9062 17.9H8.09375C7.83447 17.9 7.625 17.6766 7.625 17.4C7.625 17.1234 7.83447 16.9 8.09375 16.9Z" fill="white"/>
</g>
<g clip-path="url(#clip1_1238_7673)">
<path d="M18.782 13.5V15.9H27.782V13.5H18.782ZM19.157 16.3V22.5H27.407V16.3H19.157ZM21.8757 16.9H24.6882C24.9475 16.9 25.157 17.1234 25.157 17.4C25.157 17.6766 24.9475 17.9 24.6882 17.9H21.8757C21.6165 17.9 21.407 17.6766 21.407 17.4C21.407 17.1234 21.6165 16.9 21.8757 16.9Z" fill="white"/>
</g>
<path d="M15.2674 3.76743C15.4151 3.61973 15.4151 3.38027 15.2674 3.23257L12.8605 0.825686C12.7129 0.677988 12.4734 0.677988 12.3257 0.825686C12.178 0.973384 12.178 1.21285 12.3257 1.36055L14.4651 3.5L12.3257 5.63945C12.178 5.78715 12.178 6.02662 12.3257 6.17431C12.4734 6.32201 12.7129 6.32201 12.8605 6.17431L15.2674 3.76743ZM15 31.1218C7.47689 31.1218 1.37821 25.0231 1.37821 17.5H0.621795C0.621795 25.4409 7.05914 31.8782 15 31.8782V31.1218ZM1.37821 17.5C1.37821 9.97689 7.47689 3.87821 15 3.87821V3.12179C7.05914 3.12179 0.621795 9.55914 0.621795 17.5H1.37821Z" fill="white"/>
<path d="M17 31.5L21.0177 33.2117L20.4912 28.8764L17 31.5ZM17 3.8782C24.5231 3.8782 30.6218 9.97689 30.6218 17.5L31.3782 17.5C31.3782 9.55914 24.9409 3.12179 17 3.12179L17 3.8782ZM30.6218 17.5C30.6218 23.8894 26.2224 29.2521 20.2871 30.7226L20.469 31.4568C26.7338 29.9047 31.3782 24.2452 31.3782 17.5L30.6218 17.5Z" fill="white"/>
<defs>
<clipPath id="clip0_1238_7673">
<rect width="10" height="10" fill="white" transform="translate(5 12.5)"/>
</clipPath>
<clipPath id="clip1_1238_7673">
<rect width="10" height="10" fill="white" transform="translate(18.782 12.5)"/>
</clipPath>
</defs>
</svg>
