<svg width="32" height="31" viewBox="0 0 32 31" fill="none" xmlns="http://www.w3.org/2000/svg">
<g clip-path="url(#clip0_1238_9523)">
<path d="M0.944077 7.52943C0.883878 7.73902 0.853779 10.1343 0.883878 12.829L0.974176 17.7693H10.7565H20.5387V12.5296V7.28991L10.8167 7.20008C3.05103 7.1402 1.06447 7.20008 0.944077 7.52943Z" fill="white"/>
<path d="M22.4897 9.80784C22.2497 10.0472 22.1297 11.4835 22.1297 14.2365C22.1297 16.9894 22.0097 18.4257 21.7698 18.6651C21.5298 18.9045 20.15 19.0242 17.5704 19.0242H13.731V20.67C13.731 22.0464 13.8509 22.4654 14.4808 23.0638C15.5007 24.1111 16.8505 24.0513 17.9303 22.9142C18.7402 22.0464 18.8602 22.0165 21.5298 22.0165C24.1994 22.0165 24.3194 22.0464 25.1293 22.9142C26.2991 24.171 27.4989 24.1111 28.9387 22.7945C29.5086 22.2559 30.2585 21.5677 30.5585 21.2984C31.0384 20.8794 31.1284 20.3707 31.1284 17.8572C31.1284 15.0743 31.0684 14.805 30.0486 12.8002C28.5788 9.83776 28.0089 9.44876 25.1593 9.44876C23.7495 9.44876 22.6996 9.59838 22.4897 9.80784ZM28.5488 12.5009C28.7887 12.8899 29.2087 13.6979 29.4786 14.3262L29.9586 15.4633L27.6189 15.3736L25.2793 15.2838L25.1893 13.9672C25.0393 12.082 25.2193 11.8426 26.749 11.8426C27.8289 11.8426 28.2188 11.9922 28.5488 12.5009ZM17.0305 20.67C17.4804 21.2086 17.3304 22.0165 16.6705 22.4354C15.6207 23.0937 14.4509 21.6275 15.2307 20.67C15.7107 20.1014 16.5505 20.1014 17.0305 20.67ZM27.8289 20.67C28.6088 21.6275 27.4389 23.0937 26.4191 22.4354C25.7292 22.0165 25.5792 21.2086 26.0291 20.67C26.5091 20.1014 27.349 20.1014 27.8289 20.67Z" fill="white"/>
<path d="M2.38477 20.8422C2.38477 22.147 2.50768 22.5441 3.15299 23.1114C4.13633 24.0475 5.54987 24.0475 6.5332 23.1114L7.30143 22.4307L8.06966 23.1114C8.5306 23.5653 9.17591 23.8206 9.75977 23.8206C11.327 23.8206 12.2181 22.7427 12.2181 20.8422V19.2821H7.30143H2.38477V20.8422ZM5.76497 20.8422C6.56393 21.7499 5.36549 23.1398 4.3207 22.5157C3.61393 22.1186 3.46029 21.3528 3.92122 20.8422C4.41289 20.3032 5.27331 20.3032 5.76497 20.8422ZM10.6816 20.8422C11.4806 21.7499 10.2822 23.1398 9.23737 22.5157C8.5306 22.1186 8.37695 21.3528 8.83789 20.8422C9.32956 20.3032 10.19 20.3032 10.6816 20.8422Z" fill="white"/>
</g>
<defs>
<clipPath id="clip0_1238_9523">
<rect width="30.2564" height="30.2564" fill="white" transform="translate(0.87207 0.371826)"/>
</clipPath>
</defs>
</svg>
