<svg width="20" height="20" viewBox="0 0 20 20" fill="none" xmlns="http://www.w3.org/2000/svg">
<path fill-rule="evenodd" clip-rule="evenodd" d="M9.05559 12.9698C9.11642 13.0708 9.20014 13.1632 9.30621 13.2407C9.49753 13.3806 9.7305 13.4497 9.96441 13.4516C10.2217 13.4645 10.4828 13.3962 10.6935 13.2422C10.8023 13.1627 10.8875 13.0676 10.9487 12.9636L15.6625 8.06834C16.0456 7.67051 15.9947 7.08375 15.5489 6.75778C15.1031 6.4318 14.4311 6.49004 14.048 6.88787L9.99913 11.0926L5.95164 6.88935C5.56855 6.49152 4.89659 6.43328 4.45077 6.75925C4.00495 7.08523 3.95409 7.67199 4.33717 8.06982L9.05559 12.9698Z" fill="#F81E36"/>
</svg>
