<svg width="28" height="25" viewBox="0 0 28 25" fill="none" xmlns="http://www.w3.org/2000/svg">
<path d="M1.69211 10.9372C1.69211 10.9372 13.8989 5.79594 18.1324 3.98556C19.7554 3.26147 25.259 0.944172 25.259 0.944172C25.259 0.944172 27.7992 -0.0695567 27.5875 2.39246C27.5169 3.40628 26.9524 6.95448 26.388 10.7924C25.5412 16.2235 24.6239 22.1613 24.6239 22.1613C24.6239 22.1613 24.4828 23.8269 23.2833 24.1165C22.0838 24.4061 20.1081 23.1028 19.7554 22.813C19.4731 22.5959 14.4634 19.3372 12.6288 17.7441C12.1349 17.3096 11.5705 16.4407 12.6993 15.4269C15.2395 13.0373 18.2736 10.0683 20.1081 8.18559C20.9549 7.31658 21.8015 5.28902 18.2736 7.75104C13.2639 11.2993 8.32471 14.6304 8.32471 14.6304C8.32471 14.6304 7.19573 15.3544 5.07897 14.7027C2.96211 14.0511 0.49252 13.1821 0.49252 13.1821C0.49252 13.1821 -1.20081 12.0959 1.69211 10.9372Z" fill="#1B1A1A"/>
</svg>
