<svg width="21" height="21" viewBox="0 0 21 21" fill="none" xmlns="http://www.w3.org/2000/svg">
<path fill-rule="evenodd" clip-rule="evenodd" d="M18.6922 12.7108C18.6922 12.7108 20.3901 14.2472 20.8101 14.9581C20.8182 14.9684 20.8246 14.9797 20.829 14.9918C21.0001 15.2544 21.0421 15.4603 20.9581 15.6123C20.8164 15.8634 20.3365 15.9894 20.1738 16H17.1729C16.9639 16 16.5292 15.95 16 15.6152C15.5958 15.3564 15.1936 14.9302 14.8041 14.5136C14.2224 13.8951 13.7194 13.3582 13.2102 13.3582C13.1458 13.3581 13.082 13.3679 13.0212 13.3871C12.6358 13.4987 12.1465 14.0018 12.1465 15.342C12.1465 15.7614 11.7853 16 11.5323 16H10.1578C9.6895 16 7.2514 15.8499 5.08945 13.7613C2.4403 11.2042 0.0609946 6.0746 0.0378946 6.02939C-0.110156 5.69748 0.200645 5.51662 0.536645 5.51662H3.56695C3.9733 5.51662 4.1056 5.74174 4.198 5.94376C4.3051 6.17562 4.702 7.10303 5.353 8.14492C6.4072 9.84004 7.05505 10.5298 7.5727 10.5298C7.66996 10.5301 7.76557 10.5069 7.8499 10.4625C8.5261 10.1219 8.4001 7.90922 8.3686 7.45321C8.3686 7.3647 8.36755 6.46519 8.02105 6.03035C7.77325 5.71865 7.35115 5.59743 7.096 5.55317C7.16425 5.46274 7.30915 5.32421 7.495 5.24243C7.95805 5.03079 8.7949 5 9.62545 5H10.0864C10.9873 5.01154 11.2204 5.06446 11.548 5.14046C12.2074 5.28476 12.22 5.67632 12.1623 7.00971C12.1455 7.39068 12.1276 7.81975 12.1276 8.32482C12.1276 8.43257 12.1224 8.55282 12.1224 8.675C12.1024 9.35902 12.0762 10.1296 12.6033 10.4461C12.6716 10.4851 12.7506 10.5058 12.8311 10.5058C13.0138 10.5058 13.5609 10.5058 15.0445 8.17282C15.6955 7.14247 16.1995 5.92741 16.2342 5.83602C16.2636 5.78503 16.3518 5.64168 16.4589 5.58396C16.535 5.54682 16.6204 5.52827 16.7067 5.53009H20.2714C20.6599 5.53009 20.9235 5.58396 20.9749 5.71865C21.061 5.93703 20.9581 6.60373 19.3306 8.62017C19.0566 8.95592 18.8161 9.24646 18.6051 9.50044C17.1298 11.2744 17.1298 11.3639 18.6922 12.7108Z" fill="#9D9D9D"/>
</svg>
