<svg width="21" height="21" viewBox="0 0 21 21" fill="none" xmlns="http://www.w3.org/2000/svg">
<path d="M16.8782 6.46866C14.6344 2.99989 10.0533 1.96863 6.50055 4.12489C3.04134 6.28116 1.91943 10.9687 4.16324 14.4375L4.35023 14.7187L3.60229 17.5312L6.40706 16.7812L6.68754 16.9687C7.90294 17.625 9.21183 18 10.5207 18C11.9231 18 13.3255 17.625 14.5409 16.875C18.0001 14.625 19.0285 10.0312 16.8782 6.46866ZM14.9149 13.6875C14.5409 14.25 14.0734 14.625 13.419 14.7187C13.045 14.7187 12.5776 14.9062 10.7077 14.1562C9.11834 13.4062 7.80945 12.1875 6.87452 10.7812C6.31357 10.1249 6.03309 9.28118 5.9396 8.43743C5.9396 7.68742 6.22008 7.03117 6.68754 6.56241C6.87452 6.37491 7.06151 6.28116 7.24849 6.28116H7.71595C7.90294 6.28116 8.08992 6.28116 8.18342 6.65616C8.3704 7.12492 8.83786 8.24993 8.83786 8.34368C8.93135 8.43743 8.93135 8.62493 8.83786 8.71868C8.93135 8.90618 8.83786 9.09368 8.74437 9.18743C8.65088 9.28118 8.55739 9.46868 8.46389 9.56244C8.27691 9.65619 8.18342 9.84369 8.27691 10.0312C8.65088 10.5937 9.11834 11.1562 9.5858 11.625C10.1468 12.0937 10.7077 12.4687 11.3622 12.75C11.5491 12.8437 11.7361 12.8437 11.8296 12.6562C11.9231 12.4687 12.3906 12 12.5776 11.8125C12.7645 11.625 12.858 11.625 13.045 11.7187L14.5409 12.4687C14.7279 12.5625 14.9149 12.6562 15.0084 12.75C15.1019 13.0312 15.1019 13.4062 14.9149 13.6875Z" fill="#9D9D9D"/>
</svg>
